<?xml version="1.0" encoding="utf-8"?>
<!-- Generator: Adobe Illustrator 26.2.1, SVG Export Plug-In . SVG Version: 6.00 Build 0)  -->
<svg version="1.1" id="Layer_1" xmlns="http://www.w3.org/2000/svg" xmlns:xlink="http://www.w3.org/1999/xlink" x="0px" y="0px"
	 viewBox="0 0 260 260" style="enable-background:new 0 0 260 260;" xml:space="preserve">
<style type="text/css">
	.st0{fill:none;stroke:#FFFFFF;stroke-width:9;stroke-miterlimit:10;}
	.st1{fill:#FFFFFF;}
</style>
<g>
	<path class="st1" d="M54.41,202.55c-5.51-5.72-8.26-13.66-8.26-23.81V50.87h15.23v126.58c0,6.72,1.57,11.84,4.72,15.34
		c3.14,3.51,7.86,5.26,14.16,5.26c4,0,7.44-0.64,10.3-1.93l1.07,12.66c-4.44,1.57-9.01,2.36-13.73,2.36
		C67.75,211.13,59.92,208.27,54.41,202.55z"/>
	<path class="st1" d="M129.18,175.61c-8.73-4.93-15.59-11.76-20.6-20.49c-5.01-8.72-7.51-18.59-7.51-29.61
		c0-11.01,2.5-20.88,7.51-29.61c5-8.72,11.87-15.52,20.6-20.38c8.72-4.86,18.52-7.29,29.39-7.29c10.87,0,20.67,2.43,29.39,7.29
		c8.72,4.86,15.55,11.66,20.49,20.38c4.93,8.73,7.4,18.59,7.4,29.61c0,11.01-2.47,20.88-7.4,29.61
		c-4.93,8.73-11.77,15.55-20.49,20.49c-8.73,4.93-18.52,7.4-29.39,7.4C147.7,183.01,137.9,180.54,129.18,175.61z M180.13,164.03
		c6.36-3.65,11.33-8.83,14.91-15.55c3.57-6.72,5.36-14.37,5.36-22.96c0-8.58-1.79-16.23-5.36-22.96
		c-3.58-6.72-8.55-11.91-14.91-15.55c-6.37-3.65-13.55-5.47-21.56-5.47c-8.01,0-15.2,1.82-21.56,5.47
		c-6.37,3.65-11.37,8.83-15.02,15.55c-3.65,6.72-5.47,14.37-5.47,22.96c0,8.58,1.82,16.23,5.47,22.96
		c3.65,6.72,8.65,11.91,15.02,15.55c6.36,3.65,13.55,5.47,21.56,5.47C166.57,169.5,173.76,167.67,180.13,164.03z"/>
</g>
</svg>
